# xmcd CD database file
#
# Track frame offsets:
#	150
#	43757
#	63675
#	92372
#	116980
#	132557
#	166135
#	197220
#	206050
#	232747
#	261950
#
# Disc length: 3928 seconds
#
# Revision: 0
# Processed by: cddbd v1.5.2PL0 Copyright (c) Steve Scherf et al.
# Submitted via: CDex 1.70beta2
#
DISCID=a10f560b
DTITLE=Tad Weed - Soloing
DYEAR=1992
DGENRE=Jazz
TTITLE0=I've Never Been In Love Before
TTITLE1=Joy
TTITLE2=Ellington Mist
TTITLE3=A Prayer
TTITLE4=Joyspring
TTITLE5=Lester Left Town
TTITLE6=Beautiful You
TTITLE7=Liza
TTITLE8=A Glance That Billy Gave
TTITLE9=In A Sentimental Mood
TTITLE10=What Is...
EXTD=YEAR: 1992
EXTT0=
EXTT1=
EXTT2=
EXTT3=
EXTT4=
EXTT5=
EXTT6=
EXTT7=
EXTT8=
EXTT9=
EXTT10=
PLAYORDER=
